<svg xmlns="http://www.w3.org/2000/svg" xmlns:xlink="http://www.w3.org/1999/xlink" width="2000" zoomAndPan="magnify" viewBox="0 0 1500 1499.999933" height="2000" preserveAspectRatio="xMidYMid meet" version="1.0"><defs><g/><clipPath id="22ec050a64"><path d="M 279.496094 596.96875 L 432 596.96875 L 432 893.96875 L 279.496094 893.96875 Z M 279.496094 596.96875 " clip-rule="nonzero"/></clipPath><clipPath id="134c4ecb8d"><path d="M 330 597 L 519.496094 597 L 519.496094 893.96875 L 330 893.96875 Z M 330 597 " clip-rule="nonzero"/></clipPath></defs><g clip-path="url(#22ec050a64)"><path fill="#ffc800" d="M 348.722656 596.96875 L 413.515625 598.570312 L 357.523438 706.5625 L 431.511719 706.160156 L 290.1875 924.375 L 349.921875 759.355469 L 279.527344 759.355469 Z M 348.722656 596.96875 " fill-opacity="1" fill-rule="evenodd"/></g><g clip-path="url(#134c4ecb8d)"><path fill="#ffffff" d="M 434.023438 597.460938 L 571.261719 597.460938 L 571.261719 657.191406 L 403.046875 657.191406 Z M 330.191406 895.136719 L 571.261719 895.136719 L 571.261719 835.402344 L 368.882812 835.402344 Z M 407.246094 776.160156 L 526.242188 776.160156 L 526.242188 716.425781 L 445.929688 716.425781 Z M 407.246094 776.160156 " fill-opacity="1" fill-rule="evenodd"/></g><g fill="#ffffff" fill-opacity="1"><g transform="translate(550.54417, 682.512689)"><g><path d="M 76.304688 -72.671875 L 18.167969 -72.671875 C 10.175781 -72.671875 3.632812 -66.132812 3.632812 -58.136719 L 3.632812 -14.535156 C 3.632812 -6.539062 10.175781 0 18.167969 0 L 76.304688 0 L 76.304688 -14.535156 L 18.167969 -14.535156 L 18.167969 -29.070312 L 76.304688 -29.070312 L 76.304688 -43.601562 L 18.167969 -43.601562 L 18.167969 -58.136719 L 76.304688 -58.136719 Z M 76.304688 -72.671875 "/></g></g></g><g fill="#ffffff" fill-opacity="1"><g transform="translate(645.615635, 682.512689)"><g><path d="M 76.304688 0 L 76.304688 -14.535156 L 18.167969 -14.535156 L 18.167969 -58.136719 L 76.304688 -58.136719 L 76.304688 -72.671875 L 18.167969 -72.671875 C 10.175781 -72.671875 3.632812 -66.132812 3.632812 -58.136719 L 3.632812 -14.535156 C 3.632812 -6.539062 10.175781 0 18.167969 0 Z M 76.304688 0 "/></g></g></g><g fill="#ffffff" fill-opacity="1"><g transform="translate(740.6871, 682.512689)"><g><path d="M 61.769531 0 C 69.855469 0 76.304688 -6.632812 76.304688 -14.535156 L 76.304688 -58.136719 C 76.304688 -66.132812 69.765625 -72.671875 61.769531 -72.671875 L 18.167969 -72.671875 C 10.175781 -72.671875 3.632812 -66.132812 3.632812 -58.136719 L 3.632812 -14.535156 C 3.632812 -6.539062 10.175781 0 18.167969 0 Z M 18.167969 -58.136719 L 61.769531 -58.136719 L 61.769531 -14.535156 L 18.167969 -14.535156 Z M 18.167969 -58.136719 "/></g></g></g><g fill="#ffffff" fill-opacity="1"><g transform="translate(550.54417, 781.512681)"><g><path d="M 61.769531 0 C 69.765625 0 76.304688 -6.539062 76.304688 -14.535156 L 76.304688 -58.136719 C 76.304688 -66.132812 69.765625 -72.671875 61.769531 -72.671875 L 3.632812 -72.671875 L 3.632812 0 Z M 18.167969 -58.136719 L 61.769531 -58.136719 L 61.769531 -14.535156 L 18.167969 -14.535156 Z M 18.167969 -58.136719 "/></g></g></g><g fill="#ffffff" fill-opacity="1"><g transform="translate(645.615635, 781.512681)"><g><path d="M 76.304688 -58.136719 C 76.304688 -66.132812 69.765625 -72.671875 61.769531 -72.671875 L 3.632812 -72.671875 L 3.632812 0 L 18.167969 0 L 18.167969 -29.070312 L 26.707031 -29.070312 L 53.59375 -2.179688 C 55.050781 -0.726562 56.867188 0 58.863281 0 L 76.304688 0 L 76.304688 -14.535156 L 61.769531 -14.535156 L 47.238281 -29.070312 L 61.769531 -29.070312 C 69.765625 -29.070312 76.304688 -35.609375 76.304688 -43.601562 Z M 61.769531 -58.136719 L 61.769531 -43.601562 L 18.167969 -43.601562 L 18.167969 -58.136719 Z M 61.769531 -58.136719 "/></g></g></g><g fill="#ffffff" fill-opacity="1"><g transform="translate(740.6871, 781.512681)"><g><path d="M 76.304688 0 L 76.304688 -14.535156 L 47.238281 -14.535156 L 47.238281 -58.136719 L 76.304688 -58.136719 L 76.304688 -72.671875 L 3.632812 -72.671875 L 3.632812 -58.136719 L 32.703125 -58.136719 L 32.703125 -14.535156 L 3.632812 -14.535156 L 3.632812 0 Z M 76.304688 0 "/></g></g></g><g fill="#ffffff" fill-opacity="1"><g transform="translate(835.758564, 781.512681)"><g><path d="M 39.96875 0 C 43.148438 0 46.417969 -1.179688 49.054688 -3.453125 L 73.582031 -24.527344 C 75.304688 -26.070312 76.214844 -27.980469 76.214844 -30.339844 L 76.304688 -72.671875 L 61.769531 -72.671875 L 61.769531 -33.609375 L 39.96875 -14.808594 L 18.167969 -33.609375 L 18.167969 -72.671875 L 3.632812 -72.671875 L 3.632812 -30.339844 C 3.632812 -28.070312 4.632812 -26.070312 6.359375 -24.527344 L 30.886719 -3.453125 C 33.609375 -1.179688 36.789062 0 39.96875 0 Z M 39.96875 0 "/></g></g></g><g fill="#ffffff" fill-opacity="1"><g transform="translate(930.830029, 781.512681)"><g><path d="M 76.304688 -72.671875 L 18.167969 -72.671875 C 10.175781 -72.671875 3.632812 -66.132812 3.632812 -58.136719 L 3.632812 -14.535156 C 3.632812 -6.539062 10.175781 0 18.167969 0 L 76.304688 0 L 76.304688 -14.535156 L 18.167969 -14.535156 L 18.167969 -29.070312 L 76.304688 -29.070312 L 76.304688 -43.601562 L 18.167969 -43.601562 L 18.167969 -58.136719 L 76.304688 -58.136719 Z M 76.304688 -72.671875 "/></g></g></g><g fill="#ffffff" fill-opacity="1"><g transform="translate(550.54417, 880.512672)"><g><path d="M 18.167969 -72.671875 C 10.175781 -72.671875 3.632812 -66.132812 3.632812 -58.136719 L 3.632812 0 L 18.167969 0 L 18.167969 -29.070312 L 61.769531 -29.070312 L 61.769531 0 L 76.304688 0 L 76.304688 -58.136719 C 76.304688 -66.132812 69.765625 -72.671875 61.769531 -72.671875 Z M 18.167969 -58.136719 L 61.769531 -58.136719 L 61.769531 -43.601562 L 18.167969 -43.601562 Z M 18.167969 -58.136719 "/></g></g></g><g fill="#ffffff" fill-opacity="1"><g transform="translate(645.615635, 880.512672)"><g><path d="M 76.304688 0 L 76.304688 -14.535156 L 18.167969 -14.535156 L 18.167969 -58.136719 L 76.304688 -58.136719 L 76.304688 -72.671875 L 18.167969 -72.671875 C 10.175781 -72.671875 3.632812 -66.132812 3.632812 -58.136719 L 3.632812 -14.535156 C 3.632812 -6.539062 10.175781 0 18.167969 0 Z M 76.304688 0 "/></g></g></g><g fill="#ffffff" fill-opacity="1"><g transform="translate(740.6871, 880.512672)"><g><path d="M 18.167969 -72.671875 C 10.175781 -72.671875 3.632812 -66.132812 3.632812 -58.136719 L 3.632812 0 L 18.167969 0 L 18.167969 -29.070312 L 61.769531 -29.070312 L 61.769531 0 L 76.304688 0 L 76.304688 -58.136719 C 76.304688 -66.132812 69.765625 -72.671875 61.769531 -72.671875 Z M 18.167969 -58.136719 L 61.769531 -58.136719 L 61.769531 -43.601562 L 18.167969 -43.601562 Z M 18.167969 -58.136719 "/></g></g></g><g fill="#ffffff" fill-opacity="1"><g transform="translate(835.758564, 880.512672)"><g><path d="M 61.769531 0 C 69.765625 0 76.304688 -6.539062 76.304688 -14.535156 L 76.304688 -58.136719 C 76.304688 -66.132812 69.765625 -72.671875 61.769531 -72.671875 L 3.632812 -72.671875 L 3.632812 0 Z M 18.167969 -58.136719 L 61.769531 -58.136719 L 61.769531 -14.535156 L 18.167969 -14.535156 Z M 18.167969 -58.136719 "/></g></g></g><g fill="#ffffff" fill-opacity="1"><g transform="translate(930.830029, 880.512672)"><g><path d="M 76.304688 -72.671875 L 18.167969 -72.671875 C 10.175781 -72.671875 3.632812 -66.132812 3.632812 -58.136719 L 3.632812 -14.535156 C 3.632812 -6.539062 10.175781 0 18.167969 0 L 76.304688 0 L 76.304688 -14.535156 L 18.167969 -14.535156 L 18.167969 -29.070312 L 76.304688 -29.070312 L 76.304688 -43.601562 L 18.167969 -43.601562 L 18.167969 -58.136719 L 76.304688 -58.136719 Z M 76.304688 -72.671875 "/></g></g></g><g fill="#ffffff" fill-opacity="1"><g transform="translate(1025.901494, 880.512672)"><g><path d="M 18.167969 -72.671875 C 10.175781 -72.671875 3.632812 -66.132812 3.632812 -58.136719 L 3.632812 0 L 18.167969 0 L 18.167969 -58.136719 L 32.703125 -58.136719 L 32.703125 0 L 47.238281 0 L 47.238281 -58.136719 L 61.769531 -58.136719 L 61.769531 0 L 76.304688 0 L 76.304688 -58.136719 C 76.304688 -66.132812 69.765625 -72.671875 61.769531 -72.671875 Z M 18.167969 -72.671875 "/></g></g></g><g fill="#ffffff" fill-opacity="1"><g transform="translate(1120.972959, 880.512672)"><g><path d="M 61.769531 -43.601562 L 18.167969 -43.601562 L 18.167969 -72.671875 L 3.632812 -72.671875 L 3.632812 -43.601562 C 3.632812 -35.609375 10.175781 -29.070312 18.167969 -29.070312 L 61.769531 -29.070312 L 61.769531 -14.535156 L 3.632812 -14.535156 L 3.632812 0 L 61.769531 0 C 69.765625 0 76.304688 -6.539062 76.304688 -14.535156 L 76.304688 -72.671875 L 61.769531 -72.671875 Z M 61.769531 -43.601562 "/></g></g></g></svg>